@startuml

package domain {
    class TransactionService

    class Transaction
    
    interface TransactionRepository
}

package persistence {
    class DBTransactionRepository
}

TransactionService --> TransactionRepository
TransactionService --> Transaction

TransactionRepository -> Transaction

DBTransactionRepository .up.|> TransactionRepository
DBTransactionRepository -up-> Transaction

@enduml
